<svg width="156" height="100" viewBox="0 0 156 100" fill="none" xmlns="http://www.w3.org/2000/svg">
<path d="M74.4289 50.287L37.5229 13.1V0.764008L74.4289 4.565V18.755L51.3829 14.583V14.86L74.4289 36.052V50.287Z" fill="#491551"/>
<path d="M87.9573 74.099L77.9771 68.561L98.7276 6.76801L108.748 12.335L87.9573 74.099Z" fill="#491551"/>
<path d="M155.608 78.156L118.701 74.354V60.118L141.747 64.521V64.246L118.701 42.823V28.632L155.608 65.82V78.156Z" fill="#491551"/>
<path d="M37.9574 56.976L14.9115 35.787V35.508L37.9574 39.682L48.3067 33.945L60.1322 44.817L37.9574 56.976Z" fill="#8E9190"/>
<path d="M37.9575 56.984L38.2964 56.643L15.4022 35.593V35.517H14.9126L14.8221 35.979L37.867 40.153C37.9824 40.174 38.1009 40.153 38.2028 40.095L48.2339 34.533L59.3203 44.732L37.7152 56.574L37.9575 56.984L38.1997 57.394L60.3744 45.237C60.5106 45.16 60.6 45.033 60.6187 44.885C60.6385 44.734 60.5844 44.589 60.4722 44.486L48.6467 33.611C48.4887 33.465 48.2516 33.439 48.0634 33.542L37.8701 39.194L15.003 35.054C14.8606 35.028 14.7119 35.065 14.6007 35.154C14.4884 35.244 14.4229 35.377 14.4229 35.517V35.794C14.4229 35.924 14.477 36.045 14.5747 36.133L37.6196 57.325C37.7755 57.471 38.0126 57.497 38.1997 57.394L37.9575 56.984Z" fill="#040606"/>
<path d="M60.1332 44.617V58.851L37.9575 71.014L37.9585 56.774L60.1332 44.617Z" fill="#BBBDBB"/>
<path d="M60.1322 44.626H59.6436V58.592L38.4461 70.212L38.4471 57.061L60.3744 45.036L60.1322 44.626L59.89 44.217L37.7152 56.376C37.5613 56.461 37.4678 56.618 37.4678 56.786V71.024C37.4678 71.189 37.5603 71.346 37.711 71.428C37.8628 71.513 38.0479 71.513 38.1997 71.431L60.3744 59.272C60.5272 59.19 60.6229 59.032 60.6229 58.862V44.626C60.6229 44.459 60.5293 44.304 60.3786 44.219C60.2278 44.137 60.0417 44.134 59.89 44.217L60.1322 44.626Z" fill="#040606"/>
<path d="M60.1332 13.778L23.2273 9.97501L1.05151 22.137L37.9585 25.938L60.1332 13.778Z" fill="#F0F8FF"/>
<path d="M60.1332 13.788L60.1842 13.319L23.2793 9.517C23.1774 9.506 23.0734 9.52599 22.985 9.57599L0.809259 21.737C0.624209 21.837 0.528569 22.039 0.572233 22.24C0.615896 22.441 0.787426 22.592 0.999505 22.614L37.9054 26.412C38.0073 26.424 38.1113 26.404 38.2007 26.357L60.3754 14.196C60.5605 14.095 60.6561 13.891 60.6125 13.69C60.5698 13.489 60.3962 13.341 60.1842 13.319L60.1332 13.788L59.891 13.377L37.8535 25.463L2.61089 21.832L23.3323 10.47L60.0812 14.254L60.1332 13.788Z" fill="#040606"/>
<path d="M60.1332 13.708V27.899L37.9585 40.056V25.868L60.1332 13.708Z" fill="#D1D3D5"/>
<path d="M60.1333 13.719H59.6436V27.634L38.4471 39.256V26.152L60.3745 14.129L60.1333 13.719L59.891 13.309L37.7153 25.471C37.5624 25.554 37.4689 25.709 37.4689 25.878V40.068C37.4689 40.237 37.5604 40.389 37.7121 40.475C37.8629 40.561 38.0479 40.561 38.1997 40.478L60.3745 28.318C60.5283 28.232 60.6229 28.08 60.6229 27.908V13.719C60.6229 13.55 60.5304 13.397 60.3786 13.311C60.2279 13.228 60.0418 13.226 59.891 13.309L60.1333 13.719Z" fill="#040606"/>
<path d="M51.4838 95.371L73.6606 83.211L94.4516 21.446L72.2748 33.606L51.4838 95.371Z" fill="#D1D3D5"/>
<path d="M51.4858 95.378L51.727 95.786L73.9039 83.629C74.0078 83.57 74.0899 83.474 74.1274 83.365L94.9184 21.598C94.9808 21.41 94.9184 21.208 94.7625 21.086C94.6045 20.963 94.3861 20.947 94.2094 21.042L72.0346 33.202C71.9286 33.259 71.8485 33.355 71.8122 33.466L51.0211 95.231C50.9577 95.416 51.0211 95.62 51.176 95.743C51.3341 95.865 51.5524 95.882 51.727 95.786L51.4858 95.378L51.9526 95.522L72.6823 33.929L93.5971 22.463L73.2531 82.9L51.2436 94.967L51.4858 95.378Z" fill="#040606"/>
<path d="M94.4526 21.546L84.4319 15.98L62.2561 28.138L72.2758 33.704L94.4526 21.546Z" fill="#F0F8FF"/>
<path d="M94.4537 21.555L94.697 21.147L84.6773 15.58C84.5276 15.498 84.3394 15.498 84.1907 15.58L62.0139 27.741C61.8621 27.823 61.7675 27.978 61.7675 28.146C61.7675 28.317 61.86 28.471 62.0118 28.557L72.0326 34.12C72.1812 34.203 72.3694 34.203 72.5191 34.123L94.6949 21.962C94.8467 21.88 94.9413 21.723 94.9413 21.555C94.9413 21.386 94.8487 21.229 94.697 21.147L94.4537 21.555L94.2083 21.144L72.2789 33.169L63.2396 28.151L84.4309 16.531L94.2073 21.962L94.4537 21.555Z" fill="#040606"/>
<path d="M14.9115 35.734V36.011L37.9575 57.203V71.44L1.05048 34.249V21.915L37.9575 25.717V39.905L14.9115 35.734Z" fill="#F4F3F2"/>
<path d="M14.9126 35.738H14.424V36.018C14.424 36.146 14.478 36.269 14.5747 36.358L37.4689 57.41V70.271L1.54119 34.067V22.445L37.4689 26.148V39.346L15.003 35.279C14.8606 35.252 14.7119 35.287 14.6007 35.377C14.4884 35.467 14.424 35.6 14.424 35.738H14.9126L14.8221 36.203L37.8681 40.376C38.0105 40.401 38.1592 40.363 38.2704 40.276C38.3827 40.186 38.4471 40.053 38.4471 39.911V25.724C38.4471 25.484 38.259 25.281 38.0105 25.253L1.10351 21.453C0.966282 21.439 0.828016 21.48 0.725096 21.57C0.622175 21.66 0.562927 21.787 0.562927 21.921V34.254C0.562927 34.376 0.611778 34.493 0.698065 34.58L37.604 71.772C37.7423 71.91 37.9554 71.954 38.1404 71.883C38.3255 71.81 38.4471 71.638 38.4471 71.445V57.209C38.4471 57.081 38.3941 56.956 38.2964 56.869L15.4022 35.817V35.738H14.9126Z" fill="#040606"/>
<path d="M51.4837 95.249L41.5056 89.708L62.254 27.92L72.2748 33.485L51.4837 95.249Z" fill="#F4F3F2"/>
<path d="M51.4848 95.258L51.728 94.85L42.094 89.499L62.5358 28.628L71.6874 33.708L51.019 95.113L51.4848 95.258L51.9516 95.403L72.7405 33.639C72.8112 33.424 72.7208 33.194 72.5191 33.084L62.5014 27.518C62.3715 27.448 62.2176 27.438 62.0794 27.488C61.9411 27.539 61.8351 27.647 61.7904 27.783L41.0399 89.572C40.9692 89.783 41.0617 90.014 41.2613 90.124L51.2394 95.665C51.3673 95.738 51.5211 95.749 51.6594 95.698C51.7998 95.647 51.9037 95.539 51.9516 95.403L51.4848 95.258Z" fill="#040606"/>
<path d="M141.313 75.037L104.406 37.847L82.2311 50.006L119.135 87.193L141.313 75.037Z" fill="#F0F8FF"/>
<path d="M141.313 75.042L141.667 74.718L104.761 37.526C104.606 37.372 104.359 37.338 104.166 37.443L81.9878 49.603C81.8579 49.676 81.7695 49.799 81.7456 49.944C81.7248 50.088 81.7747 50.232 81.8776 50.336L118.781 87.528C118.94 87.685 119.185 87.719 119.38 87.611L141.555 75.454C141.686 75.383 141.775 75.254 141.797 75.11C141.819 74.969 141.77 74.822 141.667 74.718L141.313 75.042L141.071 74.636L119.229 86.611L83.0171 50.122L104.315 38.443L140.959 75.37L141.313 75.042Z" fill="#040606"/>
<path d="M119.137 98.845L141.314 86.686V74.351L119.137 86.51V98.845Z" fill="#F4F3F2"/>
<path d="M119.137 98.855L119.38 99.264L141.556 87.104C141.71 87.02 141.802 86.863 141.802 86.695V74.359C141.802 74.191 141.71 74.036 141.558 73.955C141.406 73.869 141.223 73.869 141.072 73.952L118.896 86.109C118.742 86.193 118.649 86.349 118.649 86.518V98.855C118.649 99.022 118.739 99.175 118.891 99.261C119.042 99.347 119.229 99.347 119.38 99.264L119.137 98.855H119.629V86.793L140.823 75.169V86.42L118.896 98.444L119.137 98.855Z" fill="#040606"/>
<path d="M93.9693 74.424L82.23 80.808L105.274 85.213V84.933L93.9693 74.424Z" fill="#8E9190"/>
<path d="M93.9713 74.433L93.7301 74.021L81.9909 80.406C81.8121 80.502 81.7144 80.696 81.7477 80.889C81.7799 81.083 81.9358 81.238 82.1344 81.276L105.179 85.682C105.324 85.708 105.472 85.675 105.587 85.584C105.701 85.493 105.766 85.362 105.766 85.221V84.941C105.766 84.814 105.712 84.692 105.617 84.604L94.3092 74.093C94.1553 73.947 93.9193 73.919 93.7301 74.021L93.9713 74.433L93.6314 74.772L104.787 85.142V85.221H105.274L105.374 84.757L83.6189 80.6L94.2104 74.841L93.9713 74.433Z" fill="#040606"/>
<path d="M82.2321 63.971V49.78L119.138 86.97V99.305L82.2321 95.501V81.267L105.276 85.671V85.394L82.2321 63.971Z" fill="#F4F3F2"/>
<path d="M82.231 63.98H82.7197V50.965L118.647 87.168V98.791L82.7197 95.091V81.85L105.18 86.145C105.326 86.17 105.473 86.135 105.585 86.046C105.701 85.954 105.765 85.824 105.765 85.682V85.404C105.765 85.277 105.712 85.155 105.617 85.063L82.571 63.642L82.231 63.98L81.8901 64.319L104.786 85.603V85.682H105.275L105.374 85.219L82.3267 80.814C82.1822 80.789 82.0325 80.824 81.9202 80.913C81.8059 81.003 81.7404 81.135 81.7404 81.277V95.514C81.7404 95.753 81.9306 95.956 82.177 95.982L119.084 99.783C119.223 99.798 119.362 99.753 119.464 99.664C119.567 99.577 119.626 99.447 119.626 99.315V86.979C119.626 86.86 119.578 86.743 119.49 86.656L82.5835 49.467C82.4473 49.327 82.2342 49.281 82.0481 49.355C81.8641 49.423 81.7404 49.599 81.7404 49.79V63.98C81.7404 64.107 81.7944 64.229 81.8901 64.319L82.231 63.98Z" fill="#040606"/>
</svg>
